<svg id="Layer_1" data-name="Layer 1" xmlns="http://www.w3.org/2000/svg" xmlns:xlink="http://www.w3.org/1999/xlink" width="265" height="535.04" viewBox="0 0 265 535.04">
  <defs>
    <style>
      .cls-1 {
        fill: url(#linear-gradient);
      }

      .cls-2 {
        fill: url(#linear-gradient-2);
      }
    </style>
    <linearGradient id="linear-gradient" x1="54.37" y1="129.29" x2="211.06" y2="129.29" gradientUnits="userSpaceOnUse">
      <stop offset="0.15" stop-color="#fcecfc"/>
      <stop offset="0.71" stop-color="#fba6e1"/>
      <stop offset="1" stop-color="#ee2a7b"/>
    </linearGradient>
    <linearGradient id="linear-gradient-2" x1="171.31" y1="326.41" x2="99.31" y2="501.9" xlink:href="#linear-gradient"/>
  </defs>
  <title>evee</title>
  <path class="cls-1" d="M109.83,136.18c1.43,12,4.38,18.36,13.11,26.18,4.51,4,10.51,5.84,8.61,13,27,19.06,83.26-12.35,74.08-51.2h5.43C191.18,97.91,170.31,58,138.58,43.83c-25.41-11.38-53.63-18.34-79.94-27.5,18.23,38.05,50.4,51.86,88,66.32l-15.13.19c1.92,1,3.34,3,5.24,4.07l-18,5.43,4.07,1.36c-4.06,4.8-9.17,7.37-14.93,9.5l4.07,0.58c-5,11.48-3.83,17.59-14.74,23.85l5,1C89.78,145.8,89,170.83,84.46,190.76c-4.79,21-16.2,33.82-30.09,49.94h4.46l-2.71,1.55c40.7-10.64,73.33-29.29,70.59-76.8"/>
  <path class="cls-2" d="M93.42,416c1.43,12,4.38,18.36,13.11,26.18,4.51,4,10.51,5.84,8.61,13,27,19.06,83.26-12.35,74.08-51.2h5.43c-19.88-26.24-54.82-39.29-43.44-58.57,12-20.36,43.63-39.56,75.83-65-69.81,0-134.42,67.56-96.77,82l-15.13.19c1.92,1,3.34,3,5.24,4.07l-18,5.43,4.07,1.36c-4.06,4.8-9.17,7.37-14.93,9.5l4.07,0.58c-5,11.48-3.83,17.59-14.74,23.85l5,1C73.37,425.63,72.6,450.66,68.06,470.6c-4.79,21-16.2,33.82-30.09,49.94h4.46l-2.71,1.55c40.7-10.64,73.33-29.29,70.59-76.8"/>
</svg>
