<svg id="Layer_1" data-name="Layer 1" xmlns="http://www.w3.org/2000/svg" xmlns:xlink="http://www.w3.org/1999/xlink" width="265" height="536.81" viewBox="0 0 265 536.81">
  <defs>
    <style>
      .cls-1 {
        fill: url(#linear-gradient);
      }

      .cls-2 {
        fill: url(#linear-gradient-2);
      }

      .cls-3 {
        fill: url(#linear-gradient-3);
      }

      .cls-4 {
        fill: url(#linear-gradient-4);
      }
    </style>
    <linearGradient id="linear-gradient" x1="155.41" y1="-14.27" x2="135.91" y2="102.72" gradientUnits="userSpaceOnUse">
      <stop offset="0.15" stop-color="#e6e7e8"/>
      <stop offset="0.71" stop-color="#80c217"/>
      <stop offset="1" stop-color="#7cbc0a"/>
    </linearGradient>
    <linearGradient id="linear-gradient-2" x1="219.56" y1="138.62" x2="134.07" y2="255.62" xlink:href="#linear-gradient"/>
    <linearGradient id="linear-gradient-3" x1="127.17" y1="405.43" x2="166.17" y2="292.94" xlink:href="#linear-gradient"/>
    <linearGradient id="linear-gradient-4" x1="256.73" y1="535.6" x2="34.74" y2="453.11" xlink:href="#linear-gradient"/>
  </defs>
  <title>evee</title>
  <path class="cls-1" d="M93.42,48.35C90.26,60,90.62,67,95.8,77.54c2.67,5.43,7.56,9.35,3.12,15.27,17.93,27.78,81.84,19.67,87.85-19.79l5,2c-8.63-31.77-20.66-51.35-20.66-51.35s10.28,73.5,91.15,97C230.1,16.13,118.1-15,147.61,12.49L133.5,7c1.39,1.69,2,4,3.33,5.73L118.08,11l3.27,2.78c-5.56,2.93-11.26,3.4-17.4,3.23l3.56,2.06c-9,8.77-10.13,14.88-22.59,16.61l4.31,2.78c-18,11.27-28.08,34.19-39.75,51C37.2,107.18,21.81,114.81,2.9,124.57L7,126.23l-3.1.42c41.73,5.35,79,.25,94.18-44.84"/>
  <path class="cls-2" d="M93.42,183.37C90.26,195,90.62,202,95.8,212.56c2.67,5.43,7.56,9.35,3.12,15.27,17.93,27.78,81.84,19.67,87.85-19.79l5,2c-8.63-31.77-20.66-51.35-20.66-51.35s10.28,73.5,91.15,97C230.1,151.15,118.1,120,147.61,147.5L133.5,142c1.39,1.69,2,4,3.33,5.73l-18.76-1.71,3.27,2.78c-5.56,2.93-11.26,3.4-17.4,3.23l3.56,2.06c-9,8.77-10.13,14.88-22.59,16.61l4.31,2.78c-18,11.27-28.08,34.19-39.75,51C37.2,242.2,21.81,249.82,2.9,259.58L7,261.25l-3.1.42c41.73,5.35,79,.25,94.18-44.84"/>
  <path class="cls-3" d="M93.32,315.79c-3.16,11.68-2.8,18.67,2.38,29.18,2.67,5.43,7.56,9.35,3.12,15.27,17.93,27.78,81.84,19.67,87.85-19.79l5,2c-8.63-31.77-20.66-51.35-20.66-51.35s10.28,73.5,91.15,97C230,283.57,118,252.43,147.51,279.92l-14.1-5.48c1.39,1.69,2,4,3.33,5.73L118,278.48l3.27,2.78c-5.56,2.93-11.26,3.4-17.4,3.23l3.56,2.06c-9,8.77-10.13,14.88-22.59,16.61l4.31,2.78c-18,11.27-28.08,34.19-39.75,51C37.1,374.62,21.72,382.25,2.8,392l4.14,1.67-3.1.42c41.73,5.35,79,.25,94.18-44.84"/>
  <path class="cls-4" d="M93.42,452.63c-3.16,11.68-2.8,18.67,2.38,29.18,2.67,5.43,7.56,9.35,3.12,15.27,17.93,27.78,81.84,19.67,87.85-19.79l5,2C183.18,447.55,171.15,428,171.15,428s10.28,73.5,91.15,97C230.1,420.4,118.1,389.27,147.61,416.76l-14.1-5.48c1.39,1.69,2,4,3.33,5.73l-18.76-1.71,3.27,2.78c-5.56,2.93-11.26,3.4-17.4,3.23l3.56,2.06c-9,8.77-10.13,14.88-22.59,16.61l4.31,2.78c-18,11.27-28.08,34.19-39.75,51C37.2,511.45,21.81,519.08,2.9,528.84L7,530.51l-3.1.42c41.73,5.35,79,.25,94.18-44.84"/>
</svg>
