<svg id="Layer_1" data-name="Layer 1" xmlns="http://www.w3.org/2000/svg" width="454.44" height="409" viewBox="0 0 454.44 409">
  <defs>
    <style>
      .cls-1 {
        fill: #fff;
      }
    </style>
  </defs>
  <title>thumbs-up</title>
  <path class="cls-1" d="M2.13,303.88c1.18,41.82,15.33,106.33,39.33,103s88.33-20.67,135.33-20.67,71.33,3.33,95.67,0,72.17-16.33,86.33-17.33,47.33-2.33,59.33-20,4.17-17.5,6.33-28.33,10.83-10,13.33-25.33-2.17-12.67-2-22.67,12.83-13.33,11.67-34.33-11.83-26.67-14.33-34.33,3-17,.67-26c-1.51-5.83-17.57-33.84-32.33-37.33-25.33-6-52.67,13.33-52.67,13.33s9.5-41.83,13.67-47,5.17-45.5,1-66.33-20.07-49.8-39-33c-10.33,9.17-9.92,29.83-12.08,47.67s-15.44,61.64-21.75,75.5c-15.25,33.5-43.17,45.5-43.17,45.5s8.17-43.33,11-47.67,9-37.5,1.33-67.67-21.33-38.33-34.17-34.5c-20.34,6.07-13.67,27.33-16.5,41.5s-1.86,37.11-16.67,71.33c-20.33,47-48.33,58.33-48.33,58.33s6.68-37.83,12.33-53.67c4.9-13.73,8.44-82.62-21.33-95-33.67-14-26.77,37.5-29,52.67-5.33,36.33-13.48,57.8-31,84.67-25,38.33-52.33,43.83-59.67,47.67S1,262.38,2.13,303.88Z"/>
</svg>
